<svg height="200px" width="200px" viewBox="0 0 261.496 261.496"
  xmlns="http://www.w3.org/2000/svg">
  <!-- Background (matches pie chart shape) -->
  <path fill="#00c49a1a" stroke="#ffffff" stroke-width="2"
    d="M225.181,129.962
       c0.744,5.298,1.115,10.565,1.115,15.677
       c0,62.399-50.749,113.148-113.148,113.148
       S0,208.038,0,145.639
       S50.749,32.491,113.148,32.491
       c7.095,0,14.283,0.682,21.347,2.045
       c2.138,0.403,3.997,1.673,5.205,3.47
       c1.177,1.828,1.58,4.059,1.115,6.166
       l-21.409,95.209
       c19.612-3.315,60.447-10.193,96.511-16.235
       c2.138-0.341,4.338,0.186,6.073,1.456
       C223.756,125.872,224.902,127.824,225.181,129.962z"/>

  <!-- Main pie slice -->
  <path fill="#00c49a" stroke="#ffffff" stroke-width="2"
    d="M170.063,22.36
       c30.735,16.638,56.791,43.128,71.849,73.088
       c-23.485,4.492-71.105,13.973-93.66,18.497
       C154.696,86.462,165.199,41.94,170.063,22.36z"/>
</svg>
