<?xml version="1.0" encoding="iso-8859-1"?>
<!-- Uploaded to: SVG Repo, www.svgrepo.com, Generator: SVG Repo Mixer Tools -->
<svg height="800px" width="800px" version="1.1" id="Layer_1" xmlns="http://www.w3.org/2000/svg" xmlns:xlink="http://www.w3.org/1999/xlink" 
	 viewBox="0 0 261.496 261.496" xml:space="preserve">
<g>
	<g>
		<g>
			<g id="XMLID_23_">
				<g>
					<path style="fill:#F47C6D;" d="M170.063,22.36c30.735,16.638,56.791,43.128,71.849,73.088
						c-23.485,4.492-71.105,13.973-93.66,18.497C154.696,86.462,165.199,41.94,170.063,22.36z"/>
					<path style="fill:#505967;" d="M210.093,140.403c0.124,1.766,0.155,3.501,0.155,5.236c0,53.538-43.561,97.099-97.099,97.099
						S16.05,199.177,16.05,145.639S59.61,48.54,113.148,48.54c3.346,0,6.723,0.186,10.131,0.527l-22.153,98.463
						c-0.589,2.603,0.155,5.329,2.014,7.281c1.828,1.921,4.492,2.819,7.157,2.386C110.298,157.196,162.503,148.366,210.093,140.403z
						"/>
					<path style="fill:#2D213F;" d="M260.532,105.238c-1.146,2.169-3.253,3.656-5.639,4.09
						c-19.116,3.408-114.759,22.586-115.72,22.772c-0.527,0.124-1.053,0.155-1.58,0.155c-2.138,0-4.214-0.868-5.763-2.417
						c-1.89-1.983-2.665-4.771-2.045-7.405c1.022-4.307,24.538-104.969,27.389-114.109c0.682-2.2,2.293-3.997,4.431-4.926
						c2.107-0.929,4.523-0.929,6.63,0.062c20.17,9.45,38.821,22.834,54.56,38.728c15.77,15.925,28.597,34.329,37.117,53.91
						l0.929,2.2C261.803,100.528,261.71,103.1,260.532,105.238z M241.912,95.447c-15.058-29.96-41.114-56.45-71.849-73.088
						c-4.864,19.581-15.367,64.103-21.812,91.584C170.807,109.42,218.427,99.94,241.912,95.447z"/>
					<path style="fill:#2D213F;" d="M225.181,129.962c0.744,5.298,1.115,10.565,1.115,15.677
						c0,62.399-50.749,113.148-113.148,113.148S0,208.038,0,145.639S50.749,32.491,113.148,32.491
						c7.095,0,14.283,0.682,21.347,2.045c2.138,0.403,3.997,1.673,5.205,3.47c1.177,1.828,1.58,4.059,1.115,6.166l-21.409,95.209
						c19.612-3.315,60.447-10.193,96.511-16.235c2.138-0.341,4.338,0.186,6.073,1.456
						C223.756,125.872,224.902,127.824,225.181,129.962z M210.248,145.639c0-1.735-0.031-3.47-0.155-5.236
						c-47.589,7.963-99.795,16.793-99.795,16.793c-2.664,0.434-5.329-0.465-7.157-2.386c-1.859-1.952-2.603-4.678-2.014-7.281
						l22.153-98.463c-3.408-0.341-6.785-0.527-10.131-0.527c-53.538,0-97.099,43.561-97.099,97.099s43.561,97.099,97.099,97.099
						S210.248,199.177,210.248,145.639z"/>
				</g>
			</g>
		</g>
		<path style="fill:#454D5B;" d="M35.949,86.837c-12.47,16.334-19.9,36.714-19.9,58.802c0,53.538,43.561,97.099,97.099,97.099
			c24.194,0,46.331-8.917,63.353-23.609C21.189,255.429,28.327,126.764,35.949,86.837z"/>
		<path style="fill:#EF685E;" d="M181.905,29.414c7.042,8.111,20.789,24.504,30.227,39.326c6.429,10.094,1.292,23.559-10.144,27.088
			l-53.352,16.473c-0.127,0.539-0.26,1.112-0.384,1.639c22.555-4.523,70.175-14.004,93.66-18.497
			C228.831,69.419,207.444,46.021,181.905,29.414z"/>
	</g>
</g>
</svg>